<svg xmlns="http://www.w3.org/2000/svg" width="32" height="32" enable-background="new 0 0 32 32" viewBox="0 0 32 32"><path d="M 16 0 A 3 3 0 0 0 13 3 A 3 3 0 0 0 16 6 A 3 3 0 0 0 19 3 A 3 3 0 0 0 16 0 z M 7.5 7 C 6.6713867 7 6 7.671875 6 8.5 C 6 9.328125 6.6713867 10 7.5 10 L 14 10 L 14 18.228516 L 11.728516 24.287109 L 8.2714844 22.212891 C 7.5600586 21.785157 6.6411134 22.018555 6.2148438 22.728516 C 5.7885741 23.438476 6.0185546 24.361327 6.7285156 24.787109 L 11.728516 27.787109 C 11.964356 27.92871 12.231445 28 12.5 28 C 12.666504 28 12.833497 27.972656 12.994141 27.916016 C 13.414551 27.769531 13.748047 27.444336 13.904297 27.027344 L 15.796875 21.980469 C 15.802375 21.98108 15.80694 21.979969 15.8125 21.980469 L 19.099609 25.642578 L 20.023438 30.765625 C 20.154295 31.490239 20.786622 32 21.498047 32 C 21.586427 32 21.677246 31.992203 21.767578 31.976562 C 22.58252 31.829103 23.123535 31.047852 22.976562 30.232422 L 21.976562 24.691406 C 21.927242 24.417969 21.802734 24.162109 21.617188 23.955078 L 18 19.925781 L 18 10 L 24.5 10 C 25.328613 10 26 9.328125 26 8.5 C 26 7.671875 25.328613 7 24.5 7 L 7.5 7 z "/></svg>